<mxfile host="app.diagrams.net" modified="2020-10-14T14:54:34.143Z" agent="5.0 (Windows NT 10.0; Win64; x64) AppleWebKit/537.36 (KHTML, like Gecko) Chrome/85.0.4183.102 YaBrowser/20.9.1.112 Yowser/2.5 Safari/537.36" etag="htDojnoAMR46_9Q_5FlP" version="13.8.0" type="github">
  <diagram id="vMqhfox0TT1sq61tNi-K" name="Page-1">
    <mxGraphModel dx="775" dy="447" grid="1" gridSize="10" guides="1" tooltips="1" connect="1" arrows="1" fold="1" page="1" pageScale="1" pageWidth="827" pageHeight="1169" math="0" shadow="0">
      <root>
        <mxCell id="0" />
        <mxCell id="1" parent="0" />
        <mxCell id="LBKmE9pr3SGEElcL06PF-1" value="&lt;span style=&quot;font-family: &amp;#34;times new roman&amp;#34; , serif ; font-size: 16px&quot;&gt;Source&lt;/span&gt;&lt;span style=&quot;font-family: &amp;#34;times new roman&amp;#34; , serif ; font-size: 8.33333px&quot;&gt;1&lt;/span&gt;" style="rounded=1;whiteSpace=wrap;html=1;" parent="1" vertex="1">
          <mxGeometry x="130" y="290" width="70" height="30" as="geometry" />
        </mxCell>
        <mxCell id="LBKmE9pr3SGEElcL06PF-2" value="&lt;span style=&quot;font-family: &amp;#34;times new roman&amp;#34; , serif ; font-size: 16px&quot;&gt;Source&lt;/span&gt;&lt;span style=&quot;font-family: &amp;#34;times new roman&amp;#34; , serif ; font-size: 10px&quot;&gt;&lt;sub&gt;2&lt;/sub&gt;&lt;/span&gt;" style="rounded=1;whiteSpace=wrap;html=1;" parent="1" vertex="1">
          <mxGeometry x="270" y="290" width="70" height="30" as="geometry" />
        </mxCell>
        <mxCell id="LBKmE9pr3SGEElcL06PF-3" value="&lt;span style=&quot;font-family: &amp;#34;times new roman&amp;#34; , serif ; font-size: 16px&quot;&gt;Source&lt;/span&gt;&lt;span style=&quot;font-family: &amp;#34;times new roman&amp;#34; , serif ; font-size: 10px&quot;&gt;&lt;sub&gt;k&lt;/sub&gt;&lt;/span&gt;" style="rounded=1;whiteSpace=wrap;html=1;" parent="1" vertex="1">
          <mxGeometry x="422.5" y="290" width="70" height="30" as="geometry" />
        </mxCell>
        <mxCell id="LBKmE9pr3SGEElcL06PF-5" value="token&lt;sub&gt;1&lt;/sub&gt;" style="ellipse;whiteSpace=wrap;html=1;" parent="1" vertex="1">
          <mxGeometry x="145" y="160" width="40" height="40" as="geometry" />
        </mxCell>
        <mxCell id="LBKmE9pr3SGEElcL06PF-8" value="token&lt;sub&gt;2&lt;/sub&gt;" style="ellipse;whiteSpace=wrap;html=1;" parent="1" vertex="1">
          <mxGeometry x="285" y="160" width="40" height="40" as="geometry" />
        </mxCell>
        <mxCell id="LBKmE9pr3SGEElcL06PF-9" value="token&lt;sub&gt;k&lt;/sub&gt;" style="ellipse;whiteSpace=wrap;html=1;" parent="1" vertex="1">
          <mxGeometry x="422.5" y="160" width="40" height="40" as="geometry" />
        </mxCell>
        <mxCell id="LBKmE9pr3SGEElcL06PF-14" value="" style="group" parent="1" vertex="1" connectable="0">
          <mxGeometry x="135" y="70" width="70" height="70" as="geometry" />
        </mxCell>
        <mxCell id="LBKmE9pr3SGEElcL06PF-10" value="&lt;p style=&quot;line-height: 120%&quot;&gt;&lt;br&gt;&lt;/p&gt;" style="triangle;whiteSpace=wrap;html=1;rotation=-90;align=center;verticalAlign=bottom;direction=east;flipH=0;flipV=1;spacingRight=-7;" parent="LBKmE9pr3SGEElcL06PF-14" vertex="1">
          <mxGeometry y="-5" width="65" height="75" as="geometry" />
        </mxCell>
        <mxCell id="LBKmE9pr3SGEElcL06PF-13" value="Threat&lt;sub&gt;1&lt;/sub&gt;" style="text;html=1;strokeColor=none;fillColor=none;align=center;verticalAlign=middle;whiteSpace=wrap;rounded=0;" parent="LBKmE9pr3SGEElcL06PF-14" vertex="1">
          <mxGeometry x="12.5" y="35" width="40" height="25" as="geometry" />
        </mxCell>
        <mxCell id="xcU_tkCPlGnkvct5CyMQ-1" value="" style="group" parent="1" vertex="1" connectable="0">
          <mxGeometry x="270" y="70" width="70" height="70" as="geometry" />
        </mxCell>
        <mxCell id="xcU_tkCPlGnkvct5CyMQ-2" value="&lt;p style=&quot;line-height: 120%&quot;&gt;&lt;br&gt;&lt;/p&gt;" style="triangle;whiteSpace=wrap;html=1;rotation=-90;align=center;verticalAlign=bottom;direction=east;flipH=0;flipV=1;spacingRight=-7;" parent="xcU_tkCPlGnkvct5CyMQ-1" vertex="1">
          <mxGeometry y="-5" width="65" height="75" as="geometry" />
        </mxCell>
        <mxCell id="xcU_tkCPlGnkvct5CyMQ-3" value="Threat&lt;span style=&quot;font-size: 10px&quot;&gt;&lt;sub&gt;2&lt;/sub&gt;&lt;/span&gt;" style="text;html=1;strokeColor=none;fillColor=none;align=center;verticalAlign=middle;whiteSpace=wrap;rounded=0;" parent="xcU_tkCPlGnkvct5CyMQ-1" vertex="1">
          <mxGeometry x="12.5" y="35" width="40" height="25" as="geometry" />
        </mxCell>
        <mxCell id="xcU_tkCPlGnkvct5CyMQ-4" value="" style="group" parent="1" vertex="1" connectable="0">
          <mxGeometry x="407.5" y="70" width="70" height="70" as="geometry" />
        </mxCell>
        <mxCell id="xcU_tkCPlGnkvct5CyMQ-5" value="&lt;p style=&quot;line-height: 120%&quot;&gt;&lt;br&gt;&lt;/p&gt;" style="triangle;whiteSpace=wrap;html=1;rotation=-90;align=center;verticalAlign=bottom;direction=east;flipH=0;flipV=1;spacingRight=-7;" parent="xcU_tkCPlGnkvct5CyMQ-4" vertex="1">
          <mxGeometry y="-5" width="65" height="75" as="geometry" />
        </mxCell>
        <mxCell id="xcU_tkCPlGnkvct5CyMQ-6" value="Threat&lt;span style=&quot;font-size: 8.33333px&quot;&gt;&lt;sub&gt;k&lt;/sub&gt;&lt;/span&gt;" style="text;html=1;strokeColor=none;fillColor=none;align=center;verticalAlign=middle;whiteSpace=wrap;rounded=0;" parent="xcU_tkCPlGnkvct5CyMQ-4" vertex="1">
          <mxGeometry x="12.5" y="35" width="37.5" height="25" as="geometry" />
        </mxCell>
        <mxCell id="Y25vJ870GdO83nYjNAtt-1" value="feature&lt;sub&gt;1&lt;/sub&gt;" style="rounded=1;whiteSpace=wrap;html=1;" parent="1" vertex="1">
          <mxGeometry x="93" y="230" width="62" height="30" as="geometry" />
        </mxCell>
        <mxCell id="Y25vJ870GdO83nYjNAtt-2" value="indicator&lt;sub&gt;1&lt;/sub&gt;" style="rounded=1;whiteSpace=wrap;html=1;" parent="1" vertex="1">
          <mxGeometry x="168" y="230" width="62" height="30" as="geometry" />
        </mxCell>
        <mxCell id="Y25vJ870GdO83nYjNAtt-4" value="feature&lt;span style=&quot;font-size: 10px&quot;&gt;&lt;sub&gt;2&lt;/sub&gt;&lt;/span&gt;" style="rounded=1;whiteSpace=wrap;html=1;" parent="1" vertex="1">
          <mxGeometry x="240" y="230" width="62" height="30" as="geometry" />
        </mxCell>
        <mxCell id="Y25vJ870GdO83nYjNAtt-5" value="indicator&lt;span style=&quot;font-size: 10px&quot;&gt;&lt;sub&gt;2&lt;/sub&gt;&lt;/span&gt;" style="rounded=1;whiteSpace=wrap;html=1;" parent="1" vertex="1">
          <mxGeometry x="315" y="230" width="62" height="30" as="geometry" />
        </mxCell>
        <mxCell id="Y25vJ870GdO83nYjNAtt-6" value="feature&lt;span style=&quot;font-size: 6.94444px&quot;&gt;&lt;sub&gt;k&lt;/sub&gt;&lt;/span&gt;" style="rounded=1;whiteSpace=wrap;html=1;" parent="1" vertex="1">
          <mxGeometry x="388" y="230" width="62" height="30" as="geometry" />
        </mxCell>
        <mxCell id="Y25vJ870GdO83nYjNAtt-7" value="indicator&lt;span style=&quot;font-size: 8.33333px&quot;&gt;&lt;sub&gt;k&lt;/sub&gt;&lt;/span&gt;" style="rounded=1;whiteSpace=wrap;html=1;" parent="1" vertex="1">
          <mxGeometry x="462.5" y="230" width="62" height="30" as="geometry" />
        </mxCell>
        <mxCell id="Y25vJ870GdO83nYjNAtt-8" style="edgeStyle=none;rounded=0;orthogonalLoop=1;jettySize=auto;html=1;exitX=0.5;exitY=0;exitDx=0;exitDy=0;entryX=-0.002;entryY=0.534;entryDx=0;entryDy=0;entryPerimeter=0;" parent="1" source="LBKmE9pr3SGEElcL06PF-5" target="LBKmE9pr3SGEElcL06PF-10" edge="1">
          <mxGeometry relative="1" as="geometry">
            <mxPoint x="140" y="160" as="sourcePoint" />
            <mxPoint x="165" y="137" as="targetPoint" />
          </mxGeometry>
        </mxCell>
        <mxCell id="Y25vJ870GdO83nYjNAtt-9" value="" style="endArrow=classic;html=1;exitX=0.435;exitY=0;exitDx=0;exitDy=0;exitPerimeter=0;" parent="1" source="Y25vJ870GdO83nYjNAtt-1" target="LBKmE9pr3SGEElcL06PF-5" edge="1">
          <mxGeometry width="50" height="50" relative="1" as="geometry">
            <mxPoint x="80" y="220" as="sourcePoint" />
            <mxPoint x="130" y="170" as="targetPoint" />
          </mxGeometry>
        </mxCell>
        <mxCell id="Y25vJ870GdO83nYjNAtt-10" value="" style="endArrow=classic;html=1;exitX=0.5;exitY=0;exitDx=0;exitDy=0;entryX=0.268;entryY=0.941;entryDx=0;entryDy=0;entryPerimeter=0;" parent="1" source="Y25vJ870GdO83nYjNAtt-4" target="LBKmE9pr3SGEElcL06PF-8" edge="1">
          <mxGeometry width="50" height="50" relative="1" as="geometry">
            <mxPoint x="129.97000000000003" y="240" as="sourcePoint" />
            <mxPoint x="161.62070536755107" y="204.86588292494326" as="targetPoint" />
          </mxGeometry>
        </mxCell>
        <mxCell id="Y25vJ870GdO83nYjNAtt-11" value="" style="endArrow=classic;html=1;exitX=0.5;exitY=0;exitDx=0;exitDy=0;entryX=0.415;entryY=1;entryDx=0;entryDy=0;entryPerimeter=0;" parent="1" target="LBKmE9pr3SGEElcL06PF-9" edge="1">
          <mxGeometry width="50" height="50" relative="1" as="geometry">
            <mxPoint x="414" y="230" as="sourcePoint" />
            <mxPoint x="437.67999999999995" y="198" as="targetPoint" />
          </mxGeometry>
        </mxCell>
        <mxCell id="Y25vJ870GdO83nYjNAtt-12" value="" style="endArrow=classic;html=1;entryX=1;entryY=1;entryDx=0;entryDy=0;exitX=0.582;exitY=-0.008;exitDx=0;exitDy=0;exitPerimeter=0;" parent="1" source="Y25vJ870GdO83nYjNAtt-2" target="LBKmE9pr3SGEElcL06PF-5" edge="1">
          <mxGeometry width="50" height="50" relative="1" as="geometry">
            <mxPoint x="214" y="230" as="sourcePoint" />
            <mxPoint x="184" y="190" as="targetPoint" />
          </mxGeometry>
        </mxCell>
        <mxCell id="Y25vJ870GdO83nYjNAtt-13" value="" style="endArrow=classic;html=1;entryX=0.724;entryY=0.951;entryDx=0;entryDy=0;exitX=0.5;exitY=0;exitDx=0;exitDy=0;entryPerimeter=0;" parent="1" source="Y25vJ870GdO83nYjNAtt-5" target="LBKmE9pr3SGEElcL06PF-8" edge="1">
          <mxGeometry width="50" height="50" relative="1" as="geometry">
            <mxPoint x="340.004" y="235.62000000000006" as="sourcePoint" />
            <mxPoint x="315.06213562373193" y="200.00213562373187" as="targetPoint" />
          </mxGeometry>
        </mxCell>
        <mxCell id="Y25vJ870GdO83nYjNAtt-14" value="" style="endArrow=classic;html=1;entryX=0.762;entryY=0.942;entryDx=0;entryDy=0;entryPerimeter=0;" parent="1" target="LBKmE9pr3SGEElcL06PF-9" edge="1">
          <mxGeometry width="50" height="50" relative="1" as="geometry">
            <mxPoint x="494" y="229" as="sourcePoint" />
            <mxPoint x="462.5" y="198.04000000000002" as="targetPoint" />
          </mxGeometry>
        </mxCell>
        <mxCell id="Y25vJ870GdO83nYjNAtt-15" style="edgeStyle=none;rounded=0;orthogonalLoop=1;jettySize=auto;html=1;exitX=0.5;exitY=0;exitDx=0;exitDy=0;entryX=0.001;entryY=0.468;entryDx=0;entryDy=0;entryPerimeter=0;" parent="1" source="LBKmE9pr3SGEElcL06PF-8" target="xcU_tkCPlGnkvct5CyMQ-2" edge="1">
          <mxGeometry relative="1" as="geometry">
            <mxPoint x="175" y="170" as="sourcePoint" />
            <mxPoint x="174.95000000000005" y="145.13" as="targetPoint" />
          </mxGeometry>
        </mxCell>
        <mxCell id="Y25vJ870GdO83nYjNAtt-16" style="edgeStyle=none;rounded=0;orthogonalLoop=1;jettySize=auto;html=1;exitX=0.458;exitY=-0.002;exitDx=0;exitDy=0;exitPerimeter=0;entryX=0;entryY=0.5;entryDx=0;entryDy=0;" parent="1" source="LBKmE9pr3SGEElcL06PF-9" target="xcU_tkCPlGnkvct5CyMQ-5" edge="1">
          <mxGeometry relative="1" as="geometry">
            <mxPoint x="440.1" y="165.07" as="sourcePoint" />
            <mxPoint x="440" y="135" as="targetPoint" />
          </mxGeometry>
        </mxCell>
        <mxCell id="Y25vJ870GdO83nYjNAtt-17" value="" style="endArrow=classic;html=1;entryX=0.443;entryY=1.013;entryDx=0;entryDy=0;entryPerimeter=0;exitX=0.5;exitY=0;exitDx=0;exitDy=0;" parent="1" source="LBKmE9pr3SGEElcL06PF-1" target="Y25vJ870GdO83nYjNAtt-1" edge="1">
          <mxGeometry width="50" height="50" relative="1" as="geometry">
            <mxPoint x="60" y="370" as="sourcePoint" />
            <mxPoint x="110" y="320" as="targetPoint" />
          </mxGeometry>
        </mxCell>
        <mxCell id="Y25vJ870GdO83nYjNAtt-18" value="" style="endArrow=classic;html=1;entryX=0.527;entryY=1.01;entryDx=0;entryDy=0;entryPerimeter=0;" parent="1" target="Y25vJ870GdO83nYjNAtt-2" edge="1">
          <mxGeometry width="50" height="50" relative="1" as="geometry">
            <mxPoint x="166" y="290" as="sourcePoint" />
            <mxPoint x="230" y="260" as="targetPoint" />
          </mxGeometry>
        </mxCell>
        <mxCell id="Y25vJ870GdO83nYjNAtt-19" value="" style="endArrow=classic;html=1;exitX=0.515;exitY=-0.014;exitDx=0;exitDy=0;exitPerimeter=0;entryX=0.5;entryY=1;entryDx=0;entryDy=0;" parent="1" source="LBKmE9pr3SGEElcL06PF-2" target="Y25vJ870GdO83nYjNAtt-5" edge="1">
          <mxGeometry width="50" height="50" relative="1" as="geometry">
            <mxPoint x="310" y="310" as="sourcePoint" />
            <mxPoint x="360" y="260" as="targetPoint" />
          </mxGeometry>
        </mxCell>
        <mxCell id="Y25vJ870GdO83nYjNAtt-20" value="" style="endArrow=classic;html=1;entryX=0.484;entryY=1;entryDx=0;entryDy=0;entryPerimeter=0;exitX=0.513;exitY=0.008;exitDx=0;exitDy=0;exitPerimeter=0;" parent="1" source="LBKmE9pr3SGEElcL06PF-2" target="Y25vJ870GdO83nYjNAtt-4" edge="1">
          <mxGeometry width="50" height="50" relative="1" as="geometry">
            <mxPoint x="250" y="320" as="sourcePoint" />
            <mxPoint x="300" y="270" as="targetPoint" />
          </mxGeometry>
        </mxCell>
        <mxCell id="Y25vJ870GdO83nYjNAtt-21" value="" style="endArrow=classic;html=1;exitX=0.5;exitY=0;exitDx=0;exitDy=0;entryX=0.52;entryY=1.011;entryDx=0;entryDy=0;entryPerimeter=0;" parent="1" source="LBKmE9pr3SGEElcL06PF-3" target="Y25vJ870GdO83nYjNAtt-7" edge="1">
          <mxGeometry width="50" height="50" relative="1" as="geometry">
            <mxPoint x="470" y="310" as="sourcePoint" />
            <mxPoint x="520" y="260" as="targetPoint" />
          </mxGeometry>
        </mxCell>
        <mxCell id="Y25vJ870GdO83nYjNAtt-22" value="" style="endArrow=classic;html=1;exitX=0.5;exitY=0;exitDx=0;exitDy=0;entryX=0.5;entryY=1;entryDx=0;entryDy=0;" parent="1" source="LBKmE9pr3SGEElcL06PF-3" target="Y25vJ870GdO83nYjNAtt-6" edge="1">
          <mxGeometry width="50" height="50" relative="1" as="geometry">
            <mxPoint x="414" y="290.00000000000006" as="sourcePoint" />
            <mxPoint x="443.74" y="260.33" as="targetPoint" />
          </mxGeometry>
        </mxCell>
      </root>
    </mxGraphModel>
  </diagram>
</mxfile>
